<svg xmlns="http://www.w3.org/2000/svg" xmlns:xlink="http://www.w3.org/1999/xlink" viewBox="0 0 44 58"><path d="M 40.227 57.925 L 40.227 55.283 L 37.956 51.474 L 39.069 51.474 L 40.692 54.286 L 40.768 54.286 L 42.391 51.474 L 43.504 51.474 L 41.228 55.283 L 41.228 57.925 Z" fill="rgb(242,242,247)"></path><path d="M 30.128 57.925 L 30.128 52.337 L 28.098 52.337 L 28.098 51.474 L 33.154 51.474 L 33.154 52.337 L 31.129 52.337 L 31.129 57.925 Z" fill="rgb(242,242,247)"></path><path d="M 17.539 57.925 L 17.539 51.474 L 18.442 51.474 L 21.759 56.168 L 21.826 56.168 L 21.826 51.474 L 22.8 51.474 L 22.8 57.925 L 21.897 57.925 L 18.585 53.24 L 18.513 53.24 L 18.513 57.925 Z" fill="rgb(242,242,247)"></path><path d="M 10.85 57.925 L 10.85 51.474 L 11.852 51.474 L 11.852 57.925 Z" fill="rgb(242,242,247)"></path><path d="M 2.526 57.925 L 2.526 52.337 L 0.496 52.337 L 0.496 51.474 L 5.552 51.474 L 5.552 52.337 L 3.527 52.337 L 3.527 57.925 Z" fill="rgb(242,242,247)"></path><g><defs><linearGradient id="idss1858114380_6g-1267215674" x1="0.9929774542881803" x2="0.007022545711819532" y1="0" y2="1"><stop offset="0" stop-color="rgb(152,36,199)" stop-opacity="1"></stop><stop offset="1" stop-color="rgb(232,186,250)" stop-opacity="1"></stop></linearGradient></defs><path d="M 1.656 21.13 C 1.656 9.894 10.764 0.785 22 0.785 C 33.236 0.785 42.344 9.894 42.344 21.13 C 42.344 32.365 33.236 41.474 22 41.474 C 10.764 41.474 1.656 32.365 1.656 21.13 Z M 9 20.5 C 9 27.404 14.596 33 21.5 33 C 28.404 33 34 27.404 34 20.5 C 34 13.596 28.404 8 21.5 8 C 14.596 8 9 13.596 9 20.5 Z" fill="url(#idss1858114380_6g-1267215674)"></path></g></svg>